<svg version="1.1" id="IMG_x5F_actividad" xmlns="http://www.w3.org/2000/svg" x="0px" y="0px" width="274px" height="274px" viewBox="0 0 274 274" xml:space="preserve"><style type="text/css">.st0{fill:#FBD6D9;} .st1{fill:#FFFFFF;} .st2{fill:#F498A1;} .st3{fill:#F1848E;} .st4{fill:#ED5463;} .st5{fill:#E1996A;} .st6{fill:#9A563C;} .st7{fill:#4A3426;} .st8{fill:#DC4453;} .st9{fill:none;stroke:#DC4453;stroke-linecap:round;stroke-miterlimit:10;} .st10{fill:#DB854D;} .st11{fill:#E7E9EE;} .st12{fill:#783426;} .st13{fill:#C38256;} .st14{fill:#49CFAE;} .st15{fill:#5D9BEC;} .st16{fill:#646D78;} .st17{fill:#543924;} .st18{fill:#BB713F;} .st19{fill:none;stroke:#BB713F;stroke-miterlimit:10;}</style><g id="XMLID_2278_"><g id="XMLID_2279_"><path id="XMLID_3234_" class="st0" d="M0 0h274v274H0z"/><g id="XMLID_2280_"><circle id="XMLID_2281_" class="st1" cx="195.7" cy="208.2" r="8.9"/><circle id="XMLID_2282_" class="st1" cx="195.7" cy="151.3" r="8.9"/><path id="XMLID_2283_" class="st1" d="M223.9 57.2c-4.9 0-8.9 4-8.9 8.9s4 8.9 8.9 8.9 8.9-4 8.9-8.9c0-5-4-8.9-8.9-8.9z"/><circle id="XMLID_2284_" class="st1" cx="195.7" cy="37.8" r="8.9"/><path id="XMLID_2285_" class="st1" d="M223.9.3c-4.9 0-8.9 4-8.9 8.9s4 8.9 8.9 8.9 8.9-4 8.9-8.9-4-8.9-8.9-8.9z"/><circle id="XMLID_2286_" class="st1" cx="195.7" cy="94.6" r="8.9"/><path id="XMLID_2287_" class="st1" d="M166.8.3c-4.9 0-8.9 4-8.9 8.9s4 8.9 8.9 8.9 8.9-4 8.9-8.9-4-8.9-8.9-8.9z"/><path id="XMLID_2288_" class="st1" d="M166.8 57.2c-4.9 0-8.9 4-8.9 8.9s4 8.9 8.9 8.9 8.9-4 8.9-8.9c0-5-4-8.9-8.9-8.9z"/><path id="XMLID_2289_" class="st1" d="M166.8 113.9c-4.9 0-8.9 4-8.9 8.9s4 8.9 8.9 8.9 8.9-4 8.9-8.9c0-5-4-8.9-8.9-8.9z"/><path id="XMLID_2290_" class="st1" d="M166.8 227.6c-4.9 0-8.9 4-8.9 8.9s4 8.9 8.9 8.9 8.9-4 8.9-8.9-4-8.9-8.9-8.9z"/><path id="XMLID_2291_" class="st1" d="M166.8 170.7c-4.9 0-8.9 4-8.9 8.9s4 8.9 8.9 8.9 8.9-4 8.9-8.9-4-8.9-8.9-8.9z"/><path id="XMLID_2292_" class="st1" d="M271.4 9.2c0 2.5 1 4.7 2.6 6.3V2.9c-1.6 1.6-2.6 3.8-2.6 6.3z"/><path id="XMLID_2293_" class="st1" d="M274 242.8v-12.6c-1.6 1.6-2.6 3.8-2.6 6.3 0 2.4 1 4.7 2.6 6.3z"/><path id="XMLID_2294_" class="st1" d="M274 72.3V59.8c-1.6 1.6-2.6 3.8-2.6 6.3 0 2.4 1 4.6 2.6 6.2z"/><path id="XMLID_2295_" class="st1" d="M274 129v-12.6c-1.6 1.6-2.6 3.8-2.6 6.3s1 4.7 2.6 6.3z"/><path id="XMLID_2296_" class="st1" d="M274 185.9v-12.6c-1.6 1.6-2.6 3.8-2.6 6.3 0 2.4 1 4.7 2.6 6.3z"/><path id="XMLID_2297_" class="st1" d="M223.9 113.9c-4.9 0-8.9 4-8.9 8.9s4 8.9 8.9 8.9 8.9-4 8.9-8.9c0-5-4-8.9-8.9-8.9z"/><path id="XMLID_2298_" class="st1" d="M223.9 170.7c-4.9 0-8.9 4-8.9 8.9s4 8.9 8.9 8.9 8.9-4 8.9-8.9-4-8.9-8.9-8.9z"/><path id="XMLID_2299_" class="st1" d="M223.9 227.6c-4.9 0-8.9 4-8.9 8.9s4 8.9 8.9 8.9 8.9-4 8.9-8.9-4-8.9-8.9-8.9z"/><circle id="XMLID_2300_" class="st1" cx="252.3" cy="94.6" r="8.9"/><circle id="XMLID_2301_" class="st1" cx="252.3" cy="37.8" r="8.9"/><circle id="XMLID_2302_" class="st1" cx="252.3" cy="151.3" r="8.9"/><circle id="XMLID_2303_" class="st1" cx="252.3" cy="208.2" r="8.9"/><circle id="XMLID_2304_" class="st1" cx="24.9" cy="208.1" r="8.9"/><circle id="XMLID_2305_" class="st1" cx="24.9" cy="37.8" r="8.9"/><circle id="XMLID_2306_" class="st1" cx="24.9" cy="94.6" r="8.9"/><path id="XMLID_2307_" class="st1" d="M0 17.1c2.9-1.5 4.9-4.4 4.9-7.9 0-3.4-2-6.4-4.9-7.9v15.8z"/><circle id="XMLID_2308_" class="st1" cx="24.9" cy="151.3" r="8.9"/><path id="XMLID_2309_" class="st1" d="M53.1 57.1c-4.9 0-8.9 4-8.9 8.9s4 8.9 8.9 8.9 8.9-4 8.9-8.9-4-8.9-8.9-8.9z"/><path id="XMLID_2310_" class="st1" d="M53.1 170.7c-4.9 0-8.9 4-8.9 8.9s4 8.9 8.9 8.9 8.9-4 8.9-8.9-4-8.9-8.9-8.9z"/><path id="XMLID_2311_" class="st1" d="M53.1 227.6c-4.9 0-8.9 4-8.9 8.9s4 8.9 8.9 8.9 8.9-4 8.9-8.9c0-5-4-8.9-8.9-8.9z"/><path id="XMLID_2312_" class="st1" d="M53.1 113.8c-4.9 0-8.9 4-8.9 8.9s4 8.9 8.9 8.9 8.9-4 8.9-8.9-4-8.9-8.9-8.9z"/><path id="XMLID_2313_" class="st1" d="M53.1.3c-4.9 0-8.9 4-8.9 8.9s4 8.9 8.9 8.9 8.9-4 8.9-8.9S58 .3 53.1.3z"/><path id="XMLID_2314_" class="st1" d="M0 171.7v15.8c2.9-1.5 4.9-4.4 4.9-7.9s-2-6.4-4.9-7.9z"/><path id="XMLID_2315_" class="st1" d="M0 114.8v15.8c2.9-1.5 4.9-4.4 4.9-7.9 0-3.4-2-6.4-4.9-7.9z"/><path id="XMLID_2316_" class="st1" d="M0 58.1v15.8c2.9-1.5 4.9-4.4 4.9-7.9 0-3.4-2-6.4-4.9-7.9z"/><path id="XMLID_2317_" class="st1" d="M0 228.6v15.8c2.9-1.5 4.9-4.4 4.9-7.9s-2-6.5-4.9-7.9z"/><path id="XMLID_2318_" class="st1" d="M110 113.9c-4.9 0-8.9 4-8.9 8.9s4 8.9 8.9 8.9 8.9-4 8.9-8.9c0-5-4-8.9-8.9-8.9z"/><path id="XMLID_2319_" class="st1" d="M110 227.6c-4.9 0-8.9 4-8.9 8.9s4 8.9 8.9 8.9 8.9-4 8.9-8.9-4-8.9-8.9-8.9z"/><path id="XMLID_2320_" class="st1" d="M110 170.7c-4.9 0-8.9 4-8.9 8.9s4 8.9 8.9 8.9 8.9-4 8.9-8.9-4-8.9-8.9-8.9z"/><circle id="XMLID_2321_" class="st1" cx="138.4" cy="208.2" r="8.9"/><path id="XMLID_2322_" class="st1" d="M110 57.2c-4.9 0-8.9 4-8.9 8.9s4 8.9 8.9 8.9 8.9-4 8.9-8.9c0-5-4-8.9-8.9-8.9z"/><path id="XMLID_2323_" class="st1" d="M110 .3c-4.9 0-8.9 4-8.9 8.9s4 8.9 8.9 8.9 8.9-4 8.9-8.9-4-8.9-8.9-8.9z"/><circle id="XMLID_2324_" class="st1" cx="138.4" cy="37.8" r="8.9"/><circle id="XMLID_2325_" class="st1" cx="138.4" cy="94.6" r="8.9"/><circle id="XMLID_2326_" class="st1" cx="138.4" cy="151.3" r="8.9"/><circle id="XMLID_2327_" class="st1" cx="81.5" cy="208.1" r="8.9"/><circle id="XMLID_2328_" class="st1" cx="81.5" cy="37.8" r="8.9"/><circle id="XMLID_2329_" class="st1" cx="81.5" cy="94.6" r="8.9"/><circle id="XMLID_2330_" class="st1" cx="81.5" cy="151.3" r="8.9"/></g><path id="XMLID_3161_" class="st2" d="M0 249.6h274v24.6H0z"/><g id="XMLID_2331_"><path id="XMLID_3160_" class="st3" d="M4.5 249.6h5v24.6h-5z"/><path id="XMLID_3159_" class="st3" d="M24.5 249.6h5v24.6h-5z"/><path id="XMLID_3158_" class="st3" d="M44.5 249.6h5v24.6h-5z"/><path id="XMLID_3157_" class="st3" d="M64.5 249.6h5v24.6h-5z"/><path id="XMLID_3156_" class="st3" d="M84.5 249.6h5v24.6h-5z"/><path id="XMLID_3155_" class="st3" d="M104.5 249.6h5v24.6h-5z"/><path id="XMLID_3154_" class="st3" d="M124.5 249.6h5v24.6h-5z"/><path id="XMLID_3153_" class="st3" d="M144.5 249.6h5v24.6h-5z"/><path id="XMLID_3152_" class="st3" d="M164.5 249.6h5v24.6h-5z"/><path id="XMLID_3151_" class="st3" d="M184.5 249.6h5v24.6h-5z"/><path id="XMLID_3150_" class="st3" d="M204.5 249.6h5v24.6h-5z"/><path id="XMLID_3149_" class="st3" d="M224.5 249.6h5v24.6h-5z"/><path id="XMLID_3148_" class="st3" d="M244.5 249.6h5v24.6h-5z"/><path id="XMLID_3147_" class="st3" d="M264.5 249.6h5v24.6h-5z"/></g><path id="XMLID_3145_" class="st4" d="M0 241.9h274v7.7H0z"/></g><g id="XMLID_2332_"><g id="XMLID_2333_"><path id="XMLID_2334_" class="st5" d="M159.9 247.7l.9-11.1-5.7-.1-.7 8.7z"/><path id="XMLID_2335_" class="st5" d="M175.7 246.1l-.2-9.2h5.5l.3 7.8z"/><path id="XMLID_3141_" class="st6" d="M181.3 244.7c4.8 2 19.5 6 19.5 6s.5 2 0 2c-.8 0-7.5.7-8.2.6-7.5-1.2-17.2-2.2-17.2-2.2l.2-5 5.7-1.4z"/><path id="XMLID_3140_" class="st6" d="M135 250.8s2.4-.6 5.4-1.4h-.1c2.1-.6 9.1-2.4 14.1-4l5.5 2.1c0 .8.4 4.3.4 4.3s-9.8 1.5-17.3 2.3c-.7.1-7.4-1.1-8.1-1.2-.4-.1.1-2.1.1-2.1z"/><path id="XMLID_2336_" class="st7" d="M158.1 94.4c4.8 4 32.6 15.4 43.1 9.4-8.4-1.9-.8-28.7 1.5-35.7 2-6.2 2-15.6-2.7-21-2.7-3-8.6-6-12.4-4.2 0 0-9.7-5.1-31.8 9-3.6 7.8-12 30.6 2.3 42.5z"/><path id="XMLID_3137_" class="st8" d="M154 243.8l-1.5-92.3c-.1-2.3-.5-8.3 2.3-15.4 2.2-5.6 4.1-6.7 9.3-7.5 4.8-.7 13.3.7 17.3 6.5 2.6 3.7 1.8 12.7 1.8 12.7l-1 96h-7.1l-7.2-85.7c-.1-.6-.2-.4-.5.3l-6.4 86.3-7-.9z"/><path id="XMLID_3136_" class="st5" d="M153.9 94.6l-7.1 29.8 3 2.9 3.4-1 8-27.1s-4.6-7.7-7.3-4.6z"/><path id="XMLID_3135_" class="st5" d="M154.7 94s9.2-2.4 15.3-1.9c6.1.4 16.3 3 17 3.3 1 .4-7.4 15.3-7.8 26.8 0 1.5-21.4 3.6-22.1-.6-1.8-12.3-1.6-23.2-2.4-27.6z"/><path id="XMLID_3134_" class="st5" d="M166.7 91.7l2.1-20.2 6.9-.2-.7 21s-.1 3.1-5.3 3c-3.1.1-3-3.6-3-3.6z"/><path id="XMLID_3133_" class="st5" d="M155.4 57.5c-3.9 10-.5 23.5 8.8 27 12.2 4.7 23.1-5.5 27-15.5 3.9-10-1.5-18.2-12-22.2-10.4-4-19.9.7-23.8 10.7z"/><ellipse id="XMLID_3132_" transform="rotate(21.21 177.85 69.099)" cx="177.8" cy="69.1" rx="1.6" ry="2.5"/><ellipse id="XMLID_3131_" transform="rotate(21.21 160.415 61.906)" cx="160.4" cy="61.9" rx="1.6" ry="2.5"/><path id="XMLID_3130_" class="st9" d="M168 77c-.5-.8-1.3-1.5-2.4-1.9-1.4-.5-2.7-.6-3.9-.3"/><g id="XMLID_2337_"><path id="XMLID_3129_" class="st7" d="M183.4 66.6c-.4-.8-2.2-3.1-2.2-3.1s-3.9-2.4-4-2.4l.6-1.7s3.5 2.3 4.2 2.9c.4.4 1.2 2.5 1.4 3.1v1.2z"/></g><g id="XMLID_2338_"><path id="XMLID_3127_" d="M165.3 58.8c-2.3-3.5-5.9-2.3-6-2.2l-.4-1.1s4.6-1.6 7.4 2.7l-1 .6z"/></g><path id="XMLID_3125_" class="st10" d="M167.1 70c.2-.4-.2-1-.9-1.2s-1.3 0-1.4.4c-.1.5 2.2 1.3 2.3.8z"/><path id="XMLID_3124_" class="st5" d="M148 125.8l-9.1-23.5 3.3.7 10.2 15.6 2.2 5.7s-1.3 1.9-1.8 2.2c-.9.7-3.9 1.1-4.8-.7z"/><path id="XMLID_3123_" class="st7" d="M182.7 43l-3.5 5.2c.4 1.8 4.7 1.2 8.1 9 3.4 7.7 3.2 20.7-6.9 28.1 5.2-3 11-7.7 13.4-13.2 2.3-5.1 3.5-11.6 2.8-17.2-.5-4.8-8.5-15.4-13.9-11.9z"/><path id="XMLID_3122_" class="st7" d="M184.8 38.2c-5.6-3.4-18.5-1.3-23.8 3.6-4.1 3.8-9.8 10.1-12.5 21.7-2.1 9-.4 17.7 3.6 20.5-1.6-4.5-2.9-9.5.7-15.8 3.6-6.3 5.8-7.5 10.2-8 4.4-.5 10.3-2.3 15.2-4.4 6.8-2.8 10.1-8.5 10.1-8.5 3.6-4.4-1.4-7.8-3.5-9.1z"/><path id="XMLID_2339_" class="st11" d="M180 124c.4 2.4 3.9 13.7 3 14.2-2.5 1.3-8.1 3.7-16 3.5-12.2-.3-14-4.7-14-4.7s2.1-8.8 2.5-13.6c.3-3.7-.8-15.9-.8-15.9l-.7-13.8s3.5-.4 4.6-.6c.8-.2 2.8-.4 2.8-.4s-2.4 9.8 5 10.3c10.5.7 12.8-9.5 12.8-9.5l7.8 1.9-5.2 14.8c0-.1-2.1 11.8-1.8 13.8z"/><path id="XMLID_3120_" class="st12" d="M187.9 47.9s-7 2.1-15.1 4.8c-6.2 2.1-16 6.1-19.4 10.7s-6.1 13.1-1.6 19.6c0 0-7.4-8-.6-20.5 6.7-12.6 36.7-14.6 36.7-14.6z"/><path id="XMLID_3114_" class="st12" d="M188.1 49.9s13 16.5-7.7 35.4c0 0 8.5-3.4 12.4-16.4 4-13-4.7-19-4.7-19z"/><ellipse id="XMLID_3113_" transform="rotate(-161.334 188.398 74.426)" class="st5" cx="188.4" cy="74.4" rx="3.4" ry="4.5"/><path id="XMLID_818_" class="st5" d="M178.6 126.1l-2.9-.2-2.6-3.2 7.1-23s2.5-5.6 6.7-4.3c1.9.6 4.1 3 1.6 8.5-.1.2-9.9 22.2-9.9 22.2z"/><path id="XMLID_586_" class="st5" d="M177.3 121.1l-18-7.6-1.1 3.5 17.5 11.4s1.8-.6 2.8-2.4c.2-.2-.5-4.5-1.2-4.9z"/><path id="XMLID_585_" class="st13" d="M145.8 109.9c.2-.1 5.8-3.3 7.1-3.9 0 0-4-12-9-21.8-1.3-2.5-7-10.9-9-10.3-9.4.3 10.9 36 10.9 36z"/><path id="XMLID_581_" class="st13" d="M150.8 136.4c.7.1 4.9-.6 4.9-.6.3-5.8-.2-22.4-2.9-29.7-.4-1.2-3.8-.3-3.8-.3l-3.3 4.2 1.9 8.8 3.2 17.6z"/><path id="XMLID_580_" class="st13" d="M150.8 136.4c.1.4-2 6.6-2 6.6l1 8.3 1.5-.5.3-5.6 2.3 5.2.2 8 2.4-.9 3.4-8.7-4-13.1-5.1.7z"/><path id="XMLID_541_" class="st14" d="M133.5 67.3s7.4 9.4 12.9 19.8l-9.8 5.8-8.7-14.7 5.6-10.9z"/><path id="XMLID_540_" class="st5" d="M159.6 113.6c-.4 0-5.7-4.8-5.7-4.8l-7.9-2.5-.1 1.1 5.8 2.6-7 .1.2 1.6 2.9.1-2.8.6v1.2l2 .3-1.9.5.1 1.6 1.9-.1-1.9.7.3 1 12.8-.4 1.3-3.6z"/><path id="XMLID_539_" class="st5" d="M138.9 102.2c.2-.4-1.5-7.3-1.5-7.3l1.5-8.1 1 .4-.5 6.4 3.4-6.1 1.3 1-1.3 2.6 1.9-2.2 1.1.6-.7 1.9 1.4-1.4 1.3.8-1 1.6 1.5-1.3.7.7-7.4 11.8-2.7-1.4z"/></g><g id="XMLID_2340_"><g id="XMLID_2341_"><path id="XMLID_537_" class="st15" d="M101.8 243.6l.2 7.4s-28.6 2.9-31 3c-.5 0-.9-2.8-.9-2.8s24.3-7.5 23.4-7.5c-.8 0 8.3-.1 8.3-.1z"/><path id="XMLID_311_" class="st15" d="M116.6 242.7l-.1 8.2s19.4 4.7 21.7 4.9c.5.1 5.3-.3 5.3-.3s.8-2.3-.3-2.7c-7.4-2.6-18.9-9.7-18.3-9.7.8.2-8.3-.4-8.3-.4z"/><path id="XMLID_2342_" class="st16" d="M93.7 114.4l-3.2 129.7 12.7.3 8.4-98.6 4 97.7 10.5-.3 5.5-119.8c-3.6-.4-33.5-14.3-37.9-9z"/><path id="XMLID_309_" class="st13" d="M88.3 111.4c-.2 0-6.4-1.8-7.8-2.1 0 0 3-22.6 5.5-33.3.7-2.8 3.3-5.8 4.9-7.8 9.3-2-2.6 43.2-2.6 43.2z"/><path id="XMLID_308_" class="st13" d="M89.8 138.3c-.7.2-4.9.5-4.9.5-1.7-5.6-5.2-21.8-4.3-29.5.1-1.2 3.6-1.2 3.6-1.2l4.2 3.3.3 9 1.1 17.9z"/><path id="XMLID_307_" class="st13" d="M89.8 138.3c0 .5 3.5 5.9 3.5 5.9l1 8.3-1.5-.1-1.6-5.4-1 5.6 1.7 7.8-2.5-.3-5.4-7.7.8-13.7 5-.4z"/><path id="XMLID_2343_" class="st14" d="M132.3 134.2l-39.7-.7L93.8 88l-.8 4.2-11.6-2.4s5.5-20.6 8.4-21.8c4.5-1.9 13-3.2 21.6-3.6 6.7-.3 22 3 22 3l-1.1 66.8z"/><path id="XMLID_2344_" class="st13" d="M104.9 56.7c3.6-2.7 12-.7 12.1.3v6.1s.7 5.8-6.5 5.7c-7-.1-5.8-6.6-5.8-6.6s-.4-5.2.2-5.5z"/><path id="XMLID_100_" class="st13" d="M91.5 41c.6 11.8 8.1 19.2 19.6 19.1 10.3-.1 18.6-10.7 19-22.6.5-11.8-.5-22.8-16.9-22.5-17.2.3-22.7 4.4-21.7 26z"/><path id="XMLID_99_" class="st17" d="M135.5 17.4c-4.2-7.3-21.8-10.9-36.1-4.5s-11 10.1-8.6 12.7c4.3 4.6 33.9-2.4 35.6-2.9 1 11.1.7 17.5-.2 25-.3 2.2 3.3 2 3.5 1.1 1.8-8.4 9.2-25.4 5.8-31.4z"/><path id="XMLID_98_" class="st13" d="M124.6 39.6c-1.3 2.8-1.3 5 .5 5.9 1.9.8 6.1-.2 7.4-3 1.3-2.8.8-5.8-1.1-6.7-1.9-.9-5.6 1-6.8 3.8z"/><path id="XMLID_28_" d="M118 36.4c0 1.5-.7 2.8-1.7 2.8s-1.8-1.2-1.8-2.7c0-1.5.7-2.8 1.7-2.8s1.8 1.2 1.8 2.7z"/><ellipse id="XMLID_27_" transform="matrix(.9997 -.02351 .02351 .9997 -.83 2.335)" cx="98.9" cy="36.5" rx="1.8" ry="2.8"/><path id="XMLID_26_" class="st17" d="M112.2 30.8s2.1-1.3 4.1-1.8c1.4-.3 3.6-.3 3.6-.3l-.2 2.1s-1.5.4-3 .6c-1.5.3-3.4 1.5-3.4 1.5l-1.1-2.1z"/><path id="XMLID_25_" class="st17" d="M103.3 31.5s-1.9-1.7-3.7-2.4c-1.3-.5-3.5-.8-3.5-.8l-.2 2.1s1.4.6 2.8 1.1c1.4.5 3.1 2.1 3.1 2.1l1.5-2.1z"/><path id="XMLID_2345_" class="st18" d="M108.8 43.6c0-.5-.7-.8-1.5-.8s-1.5.4-1.5.8 3 .5 3 0z"/><path id="XMLID_2346_" class="st19" d="M104.6 50.6l4.2.1"/></g></g></g></g></svg>